# xmcd
#
# Track frame offsets: 
#        150
#        27440
#        45763
#        63715
#        78043
#        112488
#        126078
#        144286
#        166636
#        188246
#        213828
#        233041
#        248004
#        270522
#        292562
#
# Disc length: 4048 seconds
#
# Revision: 0
# Processed by: cddbd v1.5.2PL0 Copyright (c) Steve Scherf et al.
# Submitted via: ExactAudioCopy v1.3
#
DISCID=c00fce0f
DTITLE=Paul Lamb and The King Snakes - She's A Killer
DYEAR=1996
DGENRE=Harmonica Blues, Electric Blues
TTITLE0=She's A Killer
TTITLE1=Keep On Dreaming
TTITLE2=The Girl For Me
TTITLE3=Texas Hop
TTITLE4=Blackjack Game
TTITLE5=Who Can It Be
TTITLE6=Just A Dream
TTITLE7=My Baby She Don't Look Like That
TTITLE8=Whoop And Holler
TTITLE9=Reconsider Baby
TTITLE10=Wild Wild Women
TTITLE11=Jump For Joy
TTITLE12=Back At The Chicken Shack
TTITLE13=You're The One
TTITLE14=John's Jump
EXTD=
EXTT0=
EXTT1=
EXTT2=
EXTT3=
EXTT4=
EXTT5=
EXTT6=
EXTT7=
EXTT8=
EXTT9=
EXTT10=
EXTT11=
EXTT12=
EXTT13=
EXTT14=
PLAYORDER=
